<svg xmlns="http://www.w3.org/2000/svg" version="1.1" xmlns:xlink="http://www.w3.org/1999/xlink" xmlns:svgjs="http://svgjs.dev/svgjs" width="1500" height="1500" viewBox="0 0 1500 1500"><rect width="1500" height="1500" fill="#000000"></rect><g transform="matrix(0.6666666666666666,0,0,0.6666666666666666,249.39393939393938,435.99032258064517)"><svg viewBox="0 0 396 248" data-background-color="#000000" preserveAspectRatio="xMidYMid meet" height="939" width="1500" xmlns="http://www.w3.org/2000/svg" xmlns:xlink="http://www.w3.org/1999/xlink"><g id="tight-bounds" transform="matrix(1,0,0,1,0.2400000000000091,0.4000000000000057)"><svg viewBox="0 0 395.52 247.2" height="247.2" width="395.52"><g><svg></svg></g><g><svg viewBox="0 0 395.52 247.2" height="247.2" width="395.52"><mask id="02e753a0-4103-4e02-90c7-23cf2a39e326"><rect width="640" height="400" fill="white"></rect><g transform="matrix(1,0,0,1,87.75864335859409,37.08000000000001)"><svg viewBox="0 0 220.0027132828118 173.03999999999996" height="173.03999999999996" width="220.0027132828118"><g><svg viewBox="0 0 220.0027132828118 173.03999999999996" height="173.03999999999996" width="220.0027132828118"><g><svg viewBox="0 0 220.0027132828118 173.03999999999996" height="173.03999999999996" width="220.0027132828118"><g><svg viewBox="0 0 220.0027132828118 173.03999999999996" height="173.03999999999996" width="220.0027132828118"><g id="SvgjsG3630"><svg viewBox="0 0 220.0027132828118 173.03999999999996" height="173.03999999999996" width="220.0027132828118" id="SvgjsSvg3629"><g><svg viewBox="0 0 220.0027132828118 173.03999999999996" height="173.03999999999996" width="220.0027132828118"><g transform="matrix(1,0,0,1,0,0)"><svg width="220.0027132828118" viewBox="-3.51 -39.01 54.41 43.01" height="173.03999999999996" data-palette-color="#ffffff"><path d="M19.46 0L17.14-8.15 6.05-8.15 3.76 0 0.49 0 10.74-35.01 12.4-35.01 22.71 0 19.46 0ZM11.5-27.29L6.91-11.16 16.31-11.16 11.69-27.29 11.6-28.59 11.5-27.29ZM46.9 0L43.75 0 43.75-15.99 30.34-15.99 30.34 0 27.19 0 27.19-35.01 30.34-35.01 30.34-18.99 43.75-18.99 43.75-35.01 46.9-35.01 46.9 0Z" opacity="1" transform="matrix(1,0,0,1,0,0)" fill="black" class="wordmark-text-0" id="SvgjsPath3628" stroke-width="7" stroke="black" stroke-linejoin="round"></path></svg></g></svg></g></svg></g></svg></g></svg></g></svg></g></svg></g></mask><g transform="matrix(1,0,0,1,87.75864335859409,37.08000000000001)"><svg viewBox="0 0 220.0027132828118 173.03999999999996" height="173.03999999999996" width="220.0027132828118"><g><svg viewBox="0 0 220.0027132828118 173.03999999999996" height="173.03999999999996" width="220.0027132828118"><g><svg viewBox="0 0 220.0027132828118 173.03999999999996" height="173.03999999999996" width="220.0027132828118"><g><svg viewBox="0 0 220.0027132828118 173.03999999999996" height="173.03999999999996" width="220.0027132828118"><g id="textblocktransform"><svg viewBox="0 0 220.0027132828118 173.03999999999996" height="173.03999999999996" width="220.0027132828118" id="textblock"><g><svg viewBox="0 0 220.0027132828118 173.03999999999996" height="173.03999999999996" width="220.0027132828118"><g transform="matrix(1,0,0,1,0,0)"><svg width="220.0027132828118" viewBox="-3.51 -39.01 54.41 43.01" height="173.03999999999996" data-palette-color="#ffffff"><path d="M19.46 0L17.14-8.15 6.05-8.15 3.76 0 0.49 0 10.74-35.01 12.4-35.01 22.71 0 19.46 0ZM11.5-27.29L6.91-11.16 16.31-11.16 11.69-27.29 11.6-28.59 11.5-27.29ZM46.9 0L43.75 0 43.75-15.99 30.34-15.99 30.34 0 27.19 0 27.19-35.01 30.34-35.01 30.34-18.99 43.75-18.99 43.75-35.01 46.9-35.01 46.9 0Z" opacity="1" transform="matrix(1,0,0,1,0,0)" fill="#ffffff" class="wordmark-text-0" data-fill-palette-color="primary" id="text-0"></path></svg></g></svg></g></svg></g></svg></g></svg></g></svg></g></svg></g><g mask="url(#02e753a0-4103-4e02-90c7-23cf2a39e326)"><g transform="matrix(4.070249991700142, 0, 0, 4.070249991700142, 120.42525015769729, 1.0000000000000142)"><svg xmlns="http://www.w3.org/2000/svg" xmlns:xlink="http://www.w3.org/1999/xlink" version="1.1" x="0" y="0" viewBox="13 3 38 60.242000000000004" style="enable-background:new 0 0 64 64;" xml:space="preserve" height="60.242000000000004" width="38" class="icon-none" data-fill-palette-color="accent" id="none"><g fill="#fe5200" data-fill-palette-color="accent"><polygon points="22,57 24,61 26,57 26,53 22,53  " fill="#ffffff" data-fill-palette-color="accent"></polygon><path d="M24 42C22 42 22 43.55 22 43.55V46H26V43.55S26 42 24 42" fill="#ffffff" data-fill-palette-color="accent"></path><path d="M38 43.55V46H42V43.55S42 42 40 42 38 43.55 38 43.55" fill="#ffffff" data-fill-palette-color="accent"></path><polygon points="36.484,53 33.948,58.916 35.03,63.242 36.97,62.758 36.052,59.084 38.659,53  " fill="#ffffff" data-fill-palette-color="accent"></polygon><polygon points="41.341,53 43.948,59.084 43.03,62.758 44.97,63.242 46.052,58.916 43.516,53  " fill="#ffffff" data-fill-palette-color="accent"></polygon><path d="M36.777 31.493L36.632 31.057C35.222 31.656 33.656 32 32 32S28.778 31.656 27.368 31.057L27.223 31.493 32 33.882z" fill="#ffffff" data-fill-palette-color="accent"></path><circle cx="38" cy="21" r="2.0" fill="#ffffff" data-fill-palette-color="accent"></circle><path d="M41 17H38C39.201 17 40.266 17.542 41 18.382z" fill="#ffffff" data-fill-palette-color="accent"></path><circle cx="26" cy="21" r="2.0" fill="#ffffff" data-fill-palette-color="accent"></circle><path d="M29.561 34.899L27 33.618V34.294C27 34.852 27.125 35.349 27.329 35.791z" fill="#ffffff" data-fill-palette-color="accent"></path><path d="M32 30C36.222 30 39.765 27.399 40.731 23.907A3.98 3.98 0 0 1 38 25C35.794 25 34 23.206 34 21H30C30 23.206 28.206 25 26 25A3.98 3.98 0 0 1 23.269 23.907C24.235 27.399 27.778 30 32 30M31 25A1 1 0 0 0 33 25H35C35 26.654 33.654 28 32 28S29 26.654 29 25z" fill="#ffffff" data-fill-palette-color="accent"></path><path d="M23 18.382A3.97 3.97 0 0 1 26 17H23z" fill="#ffffff" data-fill-palette-color="accent"></path><path d="M33 3.043C32.672 3.02 32.342 3 32 3S31.328 3.02 31 3.043V7H33z" fill="#ffffff" data-fill-palette-color="accent"></path><path d="M29.444 19H34.556C35.25 17.81 36.526 17 38 17H26C27.474 17 28.75 17.81 29.444 19" fill="#ffffff" data-fill-palette-color="accent"></path><path d="M35 3.339V7H37V9H35V11H42.918C42.431 7.667 39.549 4.37 35 3.339" fill="#ffffff" data-fill-palette-color="accent"></path><rect x="31" y="9" width="2" height="2" fill="#ffffff" data-fill-palette-color="accent"></rect><rect x="19" y="13" width="26" height="2" fill="#ffffff" data-fill-palette-color="accent"></rect><path d="M29 9H27V7H29V3.339C24.451 4.37 21.569 7.667 21.082 11H29z" fill="#ffffff" data-fill-palette-color="accent"></path><path d="M25.686 37H19V45H20V43.55C20 42.178 21.086 40 24 40S28 42.178 28 43.55V45C28.352 45 28.686 45.072 29 45.184V39.745C27.671 39.264 26.424 38.333 25.686 37" fill="#ffffff" data-fill-palette-color="accent"></path><path d="M32.046 36.095L32 36.118 31.954 36.095 28.738 37.381C29.201 37.684 29.71 37.907 30.224 38.024L31 38.203V48H33V38.203L33.776 38.025A4.7 4.7 0 0 0 35.262 37.382z" fill="#ffffff" data-fill-palette-color="accent"></path><path d="M28 47H13V50A1 1 0 0 0 14 51H28A1 1 0 0 0 29 50V48A1 1 0 0 0 28 47" fill="#ffffff" data-fill-palette-color="accent"></path><path d="M35 48V50A1 1 0 0 0 36 51H50A1 1 0 0 0 51 50V47H36A1 1 0 0 0 35 48" fill="#ffffff" data-fill-palette-color="accent"></path><path d="M47 36.227V45H51V42.765C51 40.415 49.404 38.047 47 36.227" fill="#ffffff" data-fill-palette-color="accent"></path><path d="M17 36.227C14.596 38.047 13 40.415 13 42.765V45H17z" fill="#ffffff" data-fill-palette-color="accent"></path><path d="M45 45V37H38.314C37.576 38.333 36.329 39.264 35 39.745V45.184A3 3 0 0 1 36 45V43.55C36 42.178 37.086 40 40 40S44 42.178 44 43.55V45z" fill="#ffffff" data-fill-palette-color="accent"></path><path d="M25 34.294V33.067C22.878 33.282 20.811 33.967 19 34.945V35H25.06C25.032 34.769 25 34.54 25 34.294" fill="#ffffff" data-fill-palette-color="accent"></path><path d="M37 34.294V33.618L34.439 34.898 36.671 35.791C36.875 35.349 37 34.852 37 34.294" fill="#ffffff" data-fill-palette-color="accent"></path><path d="M45 34.945C43.189 33.967 41.122 33.282 39 33.067V34.294C39 34.54 38.968 34.769 38.94 35H45z" fill="#ffffff" data-fill-palette-color="accent"></path><path d="M20.5 23H21.056A9 9 0 0 1 21 22V19H20.5C19.687 19 19 19.916 19 21S19.687 23 20.5 23" fill="#ffffff" data-fill-palette-color="accent"></path><path d="M43.5 19H43V22C43 22.338 42.98 22.671 42.944 23H43.5C44.313 23 45 22.084 45 21S44.313 19 43.5 19" fill="#ffffff" data-fill-palette-color="accent"></path></g></svg></g></g></svg></g><defs></defs></svg><rect width="395.52" height="247.2" fill="none" stroke="none" visibility="hidden"></rect></g></svg></g></svg>